<svg id="visual" viewBox="0 0 960 300" width="960" height="300" xmlns="http://www.w3.org/2000/svg" xmlns:xlink="http://www.w3.org/1999/xlink" version="1.1"><rect x="0" y="0" width="960" height="300" fill="#2B2A33"></rect><path d="M0 276L20 268.2C40 260.3 80 244.7 120 237.2C160 229.7 200 230.3 240 219.3C280 208.3 320 185.7 360 187.8C400 190 440 217 480 215.7C520 214.3 560 184.7 600 176.5C640 168.3 680 181.7 720 182.2C760 182.7 800 170.3 840 184.3C880 198.3 920 238.7 940 258.8L960 279L960 0L940 0C920 0 880 0 840 0C800 0 760 0 720 0C680 0 640 0 600 0C560 0 520 0 480 0C440 0 400 0 360 0C320 0 280 0 240 0C200 0 160 0 120 0C80 0 40 0 20 0L0 0Z" fill="#0fb1f7"></path><path d="M0 186L20 196.2C40 206.3 80 226.7 120 214.2C160 201.7 200 156.3 240 143C280 129.7 320 148.3 360 170.8C400 193.3 440 219.7 480 223.5C520 227.3 560 208.7 600 187.8C640 167 680 144 720 143.7C760 143.3 800 165.7 840 184.3C880 203 920 218 940 225.5L960 233L960 0L940 0C920 0 880 0 840 0C800 0 760 0 720 0C680 0 640 0 600 0C560 0 520 0 480 0C440 0 400 0 360 0C320 0 280 0 240 0C200 0 160 0 120 0C80 0 40 0 20 0L0 0Z" fill="#4291ce"></path><path d="M0 147L20 137.2C40 127.3 80 107.7 120 113.7C160 119.7 200 151.3 240 165C280 178.7 320 174.3 360 176.8C400 179.3 440 188.7 480 182.8C520 177 560 156 600 155.7C640 155.3 680 175.7 720 183.5C760 191.3 800 186.7 840 179.3C880 172 920 162 940 157L960 152L960 0L940 0C920 0 880 0 840 0C800 0 760 0 720 0C680 0 640 0 600 0C560 0 520 0 480 0C440 0 400 0 360 0C320 0 280 0 240 0C200 0 160 0 120 0C80 0 40 0 20 0L0 0Z" fill="#4b74a5"></path><path d="M0 119L20 112.2C40 105.3 80 91.7 120 96.8C160 102 200 126 240 130.3C280 134.7 320 119.3 360 115C400 110.7 440 117.3 480 110.3C520 103.3 560 82.7 600 87.7C640 92.7 680 123.3 720 129.5C760 135.7 800 117.3 840 101.3C880 85.3 920 71.7 940 64.8L960 58L960 0L940 0C920 0 880 0 840 0C800 0 760 0 720 0C680 0 640 0 600 0C560 0 520 0 480 0C440 0 400 0 360 0C320 0 280 0 240 0C200 0 160 0 120 0C80 0 40 0 20 0L0 0Z" fill="#48597d"></path><path d="M0 36L20 40.8C40 45.7 80 55.3 120 67.8C160 80.3 200 95.7 240 96.3C280 97 320 83 360 82C400 81 440 93 480 96.8C520 100.7 560 96.3 600 93.8C640 91.3 680 90.7 720 93.7C760 96.7 800 103.3 840 103C880 102.7 920 95.3 940 91.7L960 88L960 0L940 0C920 0 880 0 840 0C800 0 760 0 720 0C680 0 640 0 600 0C560 0 520 0 480 0C440 0 400 0 360 0C320 0 280 0 240 0C200 0 160 0 120 0C80 0 40 0 20 0L0 0Z" fill="#3d4056"></path><path d="M0 37L20 34C40 31 80 25 120 25.5C160 26 200 33 240 41.5C280 50 320 60 360 62.3C400 64.7 440 59.3 480 51.5C520 43.7 560 33.3 600 27.2C640 21 680 19 720 28.2C760 37.3 800 57.7 840 62.2C880 66.7 920 55.3 940 49.7L960 44L960 0L940 0C920 0 880 0 840 0C800 0 760 0 720 0C680 0 640 0 600 0C560 0 520 0 480 0C440 0 400 0 360 0C320 0 280 0 240 0C200 0 160 0 120 0C80 0 40 0 20 0L0 0Z" fill="#2b2a33"></path></svg>